<mxfile host="app.diagrams.net" agent="Mozilla/5.0 (X11; Linux x86_64) AppleWebKit/537.36 (KHTML, like Gecko) Chrome/129.0.0.0 Safari/537.36" version="24.7.7">
  <diagram name="Page-1" id="T3hMFbqNfaf2tJY3szog">
    <mxGraphModel dx="974" dy="566" grid="1" gridSize="10" guides="1" tooltips="1" connect="1" arrows="1" fold="1" page="1" pageScale="1" pageWidth="827" pageHeight="1169" math="0" shadow="0">
      <root>
        <mxCell id="0" />
        <mxCell id="1" parent="0" />
        <mxCell id="Aj1MIc4AFQio_67McnCr-1" value="" style="rounded=1;whiteSpace=wrap;html=1;" parent="1" vertex="1">
          <mxGeometry x="190" y="120" width="780" height="350" as="geometry" />
        </mxCell>
        <mxCell id="Aj1MIc4AFQio_67McnCr-12" style="edgeStyle=orthogonalEdgeStyle;rounded=0;orthogonalLoop=1;jettySize=auto;html=1;entryX=0.25;entryY=0;entryDx=0;entryDy=0;" parent="1" source="Aj1MIc4AFQio_67McnCr-2" target="Aj1MIc4AFQio_67McnCr-7" edge="1">
          <mxGeometry relative="1" as="geometry" />
        </mxCell>
        <mxCell id="Aj1MIc4AFQio_67McnCr-2" value="osm_wrapper.py" style="rounded=1;whiteSpace=wrap;html=1;" parent="1" vertex="1">
          <mxGeometry x="230" y="240" width="140" height="60" as="geometry" />
        </mxCell>
        <mxCell id="Aj1MIc4AFQio_67McnCr-10" style="edgeStyle=orthogonalEdgeStyle;rounded=0;orthogonalLoop=1;jettySize=auto;html=1;entryX=0.45;entryY=0.956;entryDx=0;entryDy=0;entryPerimeter=0;" parent="1" source="Aj1MIc4AFQio_67McnCr-3" target="Aj1MIc4AFQio_67McnCr-7" edge="1">
          <mxGeometry relative="1" as="geometry" />
        </mxCell>
        <mxCell id="Aj1MIc4AFQio_67McnCr-3" value="load_dataset.py" style="rounded=1;whiteSpace=wrap;html=1;" parent="1" vertex="1">
          <mxGeometry x="230" y="380" width="140" height="60" as="geometry" />
        </mxCell>
        <mxCell id="Aj1MIc4AFQio_67McnCr-13" style="edgeStyle=orthogonalEdgeStyle;rounded=0;orthogonalLoop=1;jettySize=auto;html=1;entryX=0.5;entryY=0;entryDx=0;entryDy=0;" parent="1" source="Aj1MIc4AFQio_67McnCr-4" target="Aj1MIc4AFQio_67McnCr-7" edge="1">
          <mxGeometry relative="1" as="geometry">
            <Array as="points" />
          </mxGeometry>
        </mxCell>
        <mxCell id="Aj1MIc4AFQio_67McnCr-4" value="tree.py" style="rounded=1;whiteSpace=wrap;html=1;" parent="1" vertex="1">
          <mxGeometry x="460" y="130" width="140" height="60" as="geometry" />
        </mxCell>
        <mxCell id="Aj1MIc4AFQio_67McnCr-5" value="utils.py" style="rounded=1;whiteSpace=wrap;html=1;" parent="1" vertex="1">
          <mxGeometry x="230" y="310" width="140" height="60" as="geometry" />
        </mxCell>
        <mxCell id="Aj1MIc4AFQio_67McnCr-20" value="" style="edgeStyle=orthogonalEdgeStyle;rounded=0;orthogonalLoop=1;jettySize=auto;html=1;" parent="1" source="Aj1MIc4AFQio_67McnCr-7" target="Aj1MIc4AFQio_67McnCr-24" edge="1">
          <mxGeometry relative="1" as="geometry">
            <mxPoint x="660" y="345" as="targetPoint" />
          </mxGeometry>
        </mxCell>
        <mxCell id="Aj1MIc4AFQio_67McnCr-7" value="create_route.py" style="rounded=1;whiteSpace=wrap;html=1;" parent="1" vertex="1">
          <mxGeometry x="460" y="315" width="140" height="60" as="geometry" />
        </mxCell>
        <mxCell id="Aj1MIc4AFQio_67McnCr-11" style="edgeStyle=orthogonalEdgeStyle;rounded=0;orthogonalLoop=1;jettySize=auto;html=1;entryX=0.007;entryY=0.422;entryDx=0;entryDy=0;entryPerimeter=0;" parent="1" source="Aj1MIc4AFQio_67McnCr-5" target="Aj1MIc4AFQio_67McnCr-7" edge="1">
          <mxGeometry relative="1" as="geometry" />
        </mxCell>
        <mxCell id="Aj1MIc4AFQio_67McnCr-15" value="&lt;font style=&quot;font-size: 10px;&quot;&gt;Tree structure with nodes and edges on which the route is computed&lt;/font&gt;" style="text;html=1;align=center;verticalAlign=middle;whiteSpace=wrap;rounded=0;" parent="1" vertex="1">
          <mxGeometry x="534" y="187.5" width="60" height="125" as="geometry" />
        </mxCell>
        <mxCell id="Aj1MIc4AFQio_67McnCr-16" value="&lt;font style=&quot;font-size: 10px;&quot;&gt;Query map elements to populate a tree&lt;/font&gt;" style="text;html=1;align=center;verticalAlign=middle;whiteSpace=wrap;rounded=0;" parent="1" vertex="1">
          <mxGeometry x="380" y="235" width="100" height="30" as="geometry" />
        </mxCell>
        <mxCell id="Aj1MIc4AFQio_67McnCr-17" value="&lt;font style=&quot;font-size: 10px;&quot;&gt;Coordinate transformations&lt;/font&gt;" style="text;html=1;align=center;verticalAlign=middle;whiteSpace=wrap;rounded=0;" parent="1" vertex="1">
          <mxGeometry x="364" y="304" width="100" height="30" as="geometry" />
        </mxCell>
        <mxCell id="Aj1MIc4AFQio_67McnCr-21" style="edgeStyle=orthogonalEdgeStyle;rounded=0;orthogonalLoop=1;jettySize=auto;html=1;exitX=0;exitY=0;exitDx=0;exitDy=0;entryX=0;entryY=0.5;entryDx=0;entryDy=0;" parent="1" target="Aj1MIc4AFQio_67McnCr-26" edge="1">
          <mxGeometry relative="1" as="geometry">
            <mxPoint x="380" y="410" as="sourcePoint" />
            <mxPoint x="720" y="375" as="targetPoint" />
            <Array as="points">
              <mxPoint x="380" y="411" />
              <mxPoint x="620" y="411" />
              <mxPoint x="620" y="378" />
            </Array>
          </mxGeometry>
        </mxCell>
        <mxCell id="Aj1MIc4AFQio_67McnCr-31" style="edgeStyle=orthogonalEdgeStyle;rounded=0;orthogonalLoop=1;jettySize=auto;html=1;exitX=0;exitY=0;exitDx=0;exitDy=0;" parent="1" edge="1">
          <mxGeometry relative="1" as="geometry">
            <mxPoint x="380" y="411" as="sourcePoint" />
            <mxPoint x="670" y="411" as="targetPoint" />
          </mxGeometry>
        </mxCell>
        <mxCell id="Aj1MIc4AFQio_67McnCr-33" style="edgeStyle=orthogonalEdgeStyle;rounded=0;orthogonalLoop=1;jettySize=auto;html=1;exitX=0;exitY=0;exitDx=0;exitDy=0;" parent="1" edge="1">
          <mxGeometry relative="1" as="geometry">
            <mxPoint x="380" y="411" as="sourcePoint" />
            <mxPoint x="669.9733333333334" y="443.5333333333333" as="targetPoint" />
            <Array as="points">
              <mxPoint x="380" y="412" />
              <mxPoint x="620" y="412" />
              <mxPoint x="620" y="444" />
            </Array>
          </mxGeometry>
        </mxCell>
        <mxCell id="Aj1MIc4AFQio_67McnCr-18" value="&lt;span style=&quot;font-size: 10px;&quot;&gt;Dataset-specific input data with vehicle&#39;s initial position and ground truth path&lt;/span&gt;" style="text;html=1;align=center;verticalAlign=middle;whiteSpace=wrap;rounded=0;" parent="1" vertex="1">
          <mxGeometry x="380" y="413" width="130" height="44" as="geometry" />
        </mxCell>
        <mxCell id="Aj1MIc4AFQio_67McnCr-24" value="Route" style="shape=parallelogram;perimeter=parallelogramPerimeter;whiteSpace=wrap;html=1;fixedSize=1;rotation=0;" parent="1" vertex="1">
          <mxGeometry x="660" y="332" width="140" height="25" as="geometry" />
        </mxCell>
        <mxCell id="Aj1MIc4AFQio_67McnCr-26" value="Ground Truth Path" style="shape=parallelogram;perimeter=parallelogramPerimeter;whiteSpace=wrap;html=1;fixedSize=1;rotation=0;strokeColor=default;align=center;verticalAlign=middle;fontFamily=Helvetica;fontSize=12;fontColor=default;fillColor=default;" parent="1" vertex="1">
          <mxGeometry x="660" y="365" width="140" height="25" as="geometry" />
        </mxCell>
        <mxCell id="Aj1MIc4AFQio_67McnCr-27" value="Initial Position" style="shape=parallelogram;perimeter=parallelogramPerimeter;whiteSpace=wrap;html=1;fixedSize=1;strokeColor=default;align=center;verticalAlign=middle;fontFamily=Helvetica;fontSize=12;fontColor=default;fillColor=default;" parent="1" vertex="1">
          <mxGeometry x="660" y="397.5" width="140" height="25" as="geometry" />
        </mxCell>
        <mxCell id="Aj1MIc4AFQio_67McnCr-28" value="Kinematic Data" style="shape=parallelogram;perimeter=parallelogramPerimeter;whiteSpace=wrap;html=1;fixedSize=1;rotation=0;strokeColor=default;align=center;verticalAlign=middle;fontFamily=Helvetica;fontSize=12;fontColor=default;fillColor=default;" parent="1" vertex="1">
          <mxGeometry x="660" y="430" width="140" height="25" as="geometry" />
        </mxCell>
        <mxCell id="Aj1MIc4AFQio_67McnCr-34" value="create_data_samples.py" style="text;html=1;align=center;verticalAlign=middle;whiteSpace=wrap;rounded=0;" parent="1" vertex="1">
          <mxGeometry x="270" y="90" width="60" height="30" as="geometry" />
        </mxCell>
        <mxCell id="Aj1MIc4AFQio_67McnCr-36" value="" style="shape=curlyBracket;whiteSpace=wrap;html=1;rounded=1;flipH=1;labelPosition=right;verticalLabelPosition=middle;align=left;verticalAlign=middle;" parent="1" vertex="1">
          <mxGeometry x="810" y="332" width="20" height="128" as="geometry" />
        </mxCell>
        <mxCell id="hPTNV4ue7BvQekA7e8Iu-12" style="edgeStyle=orthogonalEdgeStyle;rounded=0;orthogonalLoop=1;jettySize=auto;html=1;entryX=0.5;entryY=1;entryDx=0;entryDy=0;" edge="1" parent="1" source="Aj1MIc4AFQio_67McnCr-38" target="hPTNV4ue7BvQekA7e8Iu-1">
          <mxGeometry relative="1" as="geometry" />
        </mxCell>
        <mxCell id="Aj1MIc4AFQio_67McnCr-38" value=".pkl files" style="strokeWidth=2;html=1;shape=mxgraph.flowchart.multi-document;whiteSpace=wrap;" parent="1" vertex="1">
          <mxGeometry x="840" y="362.5" width="88" height="60" as="geometry" />
        </mxCell>
        <mxCell id="hPTNV4ue7BvQekA7e8Iu-11" style="edgeStyle=orthogonalEdgeStyle;rounded=0;orthogonalLoop=1;jettySize=auto;html=1;" edge="1" parent="1" source="hPTNV4ue7BvQekA7e8Iu-1" target="hPTNV4ue7BvQekA7e8Iu-10">
          <mxGeometry relative="1" as="geometry" />
        </mxCell>
        <mxCell id="hPTNV4ue7BvQekA7e8Iu-1" value="visualize.py" style="rounded=1;whiteSpace=wrap;html=1;" vertex="1" parent="1">
          <mxGeometry x="1010" y="280" width="140" height="60" as="geometry" />
        </mxCell>
        <mxCell id="hPTNV4ue7BvQekA7e8Iu-5" value="" style="group" vertex="1" connectable="0" parent="1">
          <mxGeometry x="1195" y="380" width="110" height="44.25" as="geometry" />
        </mxCell>
        <mxCell id="hPTNV4ue7BvQekA7e8Iu-3" value="" style="shape=image;verticalLabelPosition=bottom;labelBackgroundColor=default;verticalAlign=top;aspect=fixed;imageAspect=0;image=https://www.dauntless-soft.com/products/freebies/library/books/ak/8-2_files/fig8-2.jpg;" vertex="1" parent="hPTNV4ue7BvQekA7e8Iu-5">
          <mxGeometry width="45.51" height="44.25" as="geometry" />
        </mxCell>
        <mxCell id="hPTNV4ue7BvQekA7e8Iu-4" value="Latitude&lt;div&gt;Longitude&lt;/div&gt;&lt;div&gt;Orientation&lt;/div&gt;" style="text;html=1;align=center;verticalAlign=middle;whiteSpace=wrap;rounded=0;" vertex="1" parent="hPTNV4ue7BvQekA7e8Iu-5">
          <mxGeometry x="50" y="5" width="60" height="30" as="geometry" />
        </mxCell>
        <mxCell id="hPTNV4ue7BvQekA7e8Iu-9" style="edgeStyle=orthogonalEdgeStyle;rounded=0;orthogonalLoop=1;jettySize=auto;html=1;entryX=0.5;entryY=1;entryDx=0;entryDy=0;" edge="1" parent="1" source="hPTNV4ue7BvQekA7e8Iu-6" target="hPTNV4ue7BvQekA7e8Iu-7">
          <mxGeometry relative="1" as="geometry">
            <mxPoint x="1255" y="250" as="targetPoint" />
          </mxGeometry>
        </mxCell>
        <mxCell id="hPTNV4ue7BvQekA7e8Iu-6" value="visualize.py" style="rounded=1;whiteSpace=wrap;html=1;" vertex="1" parent="1">
          <mxGeometry x="1180" y="280" width="140" height="60" as="geometry" />
        </mxCell>
        <mxCell id="hPTNV4ue7BvQekA7e8Iu-7" value="Test retrieval of road network to manually confirm against Google Maps" style="text;html=1;align=center;verticalAlign=middle;whiteSpace=wrap;rounded=0;" vertex="1" parent="1">
          <mxGeometry x="1170" y="180" width="160" height="50" as="geometry" />
        </mxCell>
        <mxCell id="hPTNV4ue7BvQekA7e8Iu-8" style="edgeStyle=orthogonalEdgeStyle;rounded=0;orthogonalLoop=1;jettySize=auto;html=1;startArrow=classic;startFill=1;endArrow=none;endFill=0;" edge="1" parent="1" source="hPTNV4ue7BvQekA7e8Iu-6">
          <mxGeometry relative="1" as="geometry">
            <mxPoint x="1250" y="380" as="targetPoint" />
          </mxGeometry>
        </mxCell>
        <mxCell id="hPTNV4ue7BvQekA7e8Iu-10" value="Test route generation based on road network and ground truth path" style="text;html=1;align=center;verticalAlign=middle;whiteSpace=wrap;rounded=0;" vertex="1" parent="1">
          <mxGeometry x="1000" y="180" width="160" height="50" as="geometry" />
        </mxCell>
      </root>
    </mxGraphModel>
  </diagram>
</mxfile>
